<?xml version="1.0" standalone="no"?>
<!DOCTYPE svg PUBLIC "-//W3C//DTD SVG 20010904//EN"
 "http://www.w3.org/TR/2001/REC-SVG-20010904/DTD/svg10.dtd">
<svg version="1.0" xmlns="http://www.w3.org/2000/svg"
 width="512.000000pt" height="512.000000pt" viewBox="0 0 512.000000 512.000000"
 preserveAspectRatio="xMidYMid meet">
<metadata>
Created by potrace 1.14, written by Peter Selinger 2001-2017
</metadata>
<g transform="translate(0.000000,512.000000) scale(0.100000,-0.100000)"
fill="#000000" stroke="none">
<path d="M473 4784 c-52 -19 -125 -97 -141 -152 -7 -21 -12 -67 -12 -101 0
-42 -4 -61 -12 -61 -7 0 -40 -13 -73 -29 -90 -43 -148 -100 -192 -189 l-38
-76 0 -1776 0 -1776 37 -75 c45 -91 103 -148 195 -192 l68 -32 2260 0 2260 0
68 34 c91 46 166 128 201 219 l25 67 -2 1765 -2 1765 -32 67 c-42 90 -100 150
-186 193 -38 19 -76 35 -83 35 -10 0 -14 16 -14 58 0 83 -23 150 -66 195 -54
55 -97 72 -179 71 -58 0 -78 -5 -115 -28 -80 -49 -120 -126 -120 -227 l0 -59
-159 0 -158 0 -5 73 c-5 84 -26 133 -76 182 -83 80 -226 83 -318 7 -12 -10
-34 -38 -49 -62 -23 -37 -29 -60 -33 -122 l-5 -78 -157 0 -158 0 -4 73 c-2 41
-11 88 -22 109 -83 171 -322 182 -420 21 -28 -47 -34 -73 -35 -150 l-1 -53
-159 0 -158 0 -5 73 c-9 145 -84 228 -218 243 -76 8 -140 -17 -193 -76 -49
-55 -67 -103 -67 -184 l0 -56 -160 0 -160 0 0 53 c0 84 -23 146 -72 194 -48
47 -79 61 -150 69 -74 8 -138 -17 -191 -76 -49 -55 -67 -103 -67 -184 l0 -56
-160 0 -160 0 0 58 c0 106 -50 196 -133 237 -46 23 -144 27 -194 9z"/>
</g>
</svg>
